<svg width="24" height="24" viewBox="0 0 24 24" fill="none" xmlns="http://www.w3.org/2000/svg">
  <path d="M12 2C6.48 2 2 6.48 2 12C2 17.52 6.48 22 12 22C17.52 22 22 17.52 22 12C22 6.48 17.52 2 12 2ZM12 20C7.59 20 4 16.41 4 12C4 7.59 7.59 4 12 4C16.41 4 20 7.59 20 12C20 16.41 16.41 20 12 20Z" fill="#12CC94"/>
  <path d="M15.88 8.29L10.7 13.47L8.12 10.89C7.73 10.5 7.1 10.5 6.71 10.89C6.32 11.28 6.32 11.91 6.71 12.3L10.7 16.29C11.09 16.68 11.72 16.68 12.11 16.29L18.29 10.11C18.68 9.72 18.68 9.09 18.29 8.7C17.9 8.31 17.27 8.31 16.88 8.7V8.29H15.88Z" fill="#12CC94"/>
</svg>
